<?xml version="1.0" standalone="no"?>
<!DOCTYPE svg PUBLIC "-//W3C//DTD SVG 1.1//EN" "http://www.w3.org/Graphics/SVG/1.1/DTD/svg11.dtd" >
<svg xmlns="http://www.w3.org/2000/svg">
<metadata>Generated by IcoMoon</metadata>
<defs>
<font id="icomoon" horiz-adv-x="1024">
<font-face units-per-em="1024" ascent="960" descent="-64" />
<missing-glyph horiz-adv-x="1024" />
<glyph unicode="&#x20;" horiz-adv-x="512" d="" />
<glyph unicode="&#xe900;" glyph-name="phone" d="M790.688 333.312c-19.68 20.448-43.328 31.36-68.48 31.36-24.928 0-48.864-10.72-69.344-31.2l-64-63.808c-5.248 2.848-10.528 5.472-15.584 8.096-7.296 3.648-14.176 7.104-20.096 10.72-59.936 38.080-114.432 87.744-166.72 152-25.344 32-42.368 58.976-54.72 86.304 16.64 15.2 32 31.008 47.008 46.176 5.696 5.664 11.36 11.552 17.056 17.216 42.528 42.56 42.528 97.696 0 140.224l-55.328 55.36c-6.272 6.272-12.736 12.768-18.848 19.264-12.16 12.576-24.928 25.536-38.080 37.696-19.68 19.392-43.168 29.76-67.904 29.76s-48.576-10.368-68.864-29.792l-0.416-0.416-68.896-69.504c-25.92-25.952-40.704-57.536-43.968-94.208-4.832-59.168 12.608-114.272 25.952-150.336 32.8-88.576 81.888-170.592 155.040-258.528 88.704-105.984 195.488-189.664 317.472-248.64 46.592-22.048 108.768-48.224 178.304-52.672 4.224-0.192 8.672-0.384 12.736-0.384 46.816 0 86.080 16.768 116.896 50.24 0.224 0.416 0.64 0.608 0.8 0.992 10.56 12.736 22.72 24.32 35.456 36.672 8.704 8.352 17.632 17.024 26.336 26.144 20.032 20.832 30.592 45.184 30.592 70.112 0 25.088-10.752 49.216-31.232 69.472l-111.168 111.68zM863.232 119.936c-7.904-8.512-16.032-16.192-24.704-24.704-13.152-12.576-26.56-25.728-39.104-40.544-20.48-21.888-44.576-32.192-76.224-32.192-3.008 0-6.272 0-9.28 0.192-60.192 3.872-116.128 27.328-158.048 47.392-114.656 55.52-215.36 134.336-299.072 234.208-69.088 83.296-115.296 160.288-145.888 242.976-18.848 50.432-25.728 89.76-22.688 126.816 1.984 23.744 11.104 43.392 27.936 60.192l69.088 69.12c9.952 9.28 20.48 14.336 30.816 14.336 12.736 0 23.104-7.68 29.568-14.144l0.64-0.64c12.352-11.52 24.128-23.488 36.48-36.288 6.272-6.464 12.768-12.928 19.264-19.648l55.328-55.328c21.472-21.472 21.472-41.312 0-62.816-5.92-5.888-11.52-11.712-17.408-17.408-17.024-17.408-33.248-33.664-50.88-49.44-0.448-0.352-0.864-0.576-1.056-0.96-17.44-17.44-14.176-34.464-10.528-46.016l0.608-1.856c14.4-34.848 34.656-67.648 65.44-106.752l0.224-0.224c55.936-68.864 114.88-122.592 179.904-163.712 8.32-5.28 16.8-9.536 24.896-13.568 7.328-3.648 14.176-7.104 20.096-10.752 0.8-0.416 1.6-0.992 2.4-1.408 6.912-3.456 13.408-5.056 20.064-5.056 16.8 0 27.328 10.528 30.816 13.952l69.28 69.312c6.912 6.912 17.856 15.232 30.592 15.232 12.608 0 22.912-7.904 29.184-14.784l112.032-112.064c20.896-20.672 20.896-41.952 0.224-63.424zM690.592 627.104c38.464-38.496 63.392-86.72 72.544-139.808 2.208-13.344 13.792-22.688 26.976-22.688 1.6 0 3.040 0.224 4.672 0.416 14.976 2.432 24.896 16.64 22.464 31.616-10.976 64.224-41.344 122.784-87.712 169.152-46.4 46.432-104.928 76.8-169.184 87.776-15.008 2.4-28.96-7.488-31.584-22.336-2.656-14.784 7.072-29.152 22.048-31.584 53.056-8.928 101.28-34.048 139.776-72.544zM846.4 783.136c-76.608 76.576-172.832 126.432-278.592 144.448-14.816 2.656-28.736-7.488-31.392-22.272-2.432-14.976 7.456-28.96 22.464-31.584 94.432-16.032 180.544-60.768 249.024-129.056 68.512-68.512 113.056-154.592 129.056-249.024 2.24-13.376 13.792-22.688 26.976-22.688 1.6 0 3.040 0.192 4.672 0.416 14.784 2.208 24.896 16.416 22.272 31.232-18.080 105.664-67.872 201.92-144.48 278.528z" />
<glyph unicode="&#xe901;" glyph-name="note" d="M974.56 397.216l-42.048 42.112c-11.616 11.616-26.816 17.44-42.048 17.44-15.328 0-30.496-5.824-42.112-17.44l-255.552-255.584c-11.616-11.616-47.264-56.608-47.264-71.84l-29.728-131.36 131.36 29.76c0 0 60.256 35.552 71.936 47.232l255.488 255.552c23.232 23.232 23.232 60.896-0.032 84.128zM698.016 78.624c-3.36-3.232-15.008-11.104-29.248-20.192l-77.12 77.152c7.936 10.816 16.736 21.696 22.176 27.136l192.448 192.448 84.192-84.192-192.448-192.352zM777.76 927.040h-649.536c-53.12 0-96.224-42.912-96.224-95.808v-766.496c0-52.896 43.104-95.776 96.224-95.776h176.768l-13.632 15.264 63.872 56.576h-227.008c-13.28 0-24.032 10.752-24.032 23.968v766.464c0 13.216 10.752 23.968 24.032 23.968h649.504c13.248 0 24-10.752 24-23.968v-377.28l72.192 63.904v313.376c0.032 52.896-43.040 95.808-96.16 95.808zM305.664-31.040h165.28v71.808h-115.264l-63.648-56.544zM683.808 740.512h-461.632c-0.8 0-1.44-0.64-1.44-1.44v-57.632c0-0.8 0.64-1.44 1.44-1.44h461.632c0.8 0 1.44 0.64 1.44 1.44v57.632c0 0.8-0.608 1.44-1.44 1.44zM222.176 509.888c-0.8 0-1.44-0.64-1.44-1.408v-57.664c0-0.8 0.64-1.44 1.44-1.44h461.632c0.8 0 1.44 0.64 1.44 1.44v57.664c0 0.768-0.64 1.408-1.44 1.408h-461.632zM222.176 394.592c-0.8 0-1.44-0.672-1.44-1.44v-57.664c0-0.8 0.64-1.472 1.44-1.472h288.512c0.8 0 1.472 0.672 1.472 1.472v57.664c0 0.768-0.672 1.44-1.472 1.44h-288.512zM222.176 625.184c-0.8 0-1.44-0.64-1.44-1.44v-57.632c0-0.8 0.64-1.44 1.44-1.44h461.632c0.8 0 1.44 0.64 1.44 1.44v57.632c0 0.8-0.64 1.44-1.44 1.44h-461.632z" />
<glyph unicode="&#xe902;" glyph-name="location" d="M511.808 928c-212.16 0-384.8-172.672-384.8-384.8 0-24.16 2.208-48.512 6.848-72.224 0.224-1.44 0.992-5.664 2.624-12.896 5.824-25.984 14.496-51.52 25.76-75.872 41.44-97.6 132.64-247.52 332.672-408.128 4.992-4.096 11.072-6.080 17.088-6.080 6.048 0 12.096 2.016 17.12 6.048 199.84 160.608 291.232 310.528 332.672 408.128 11.264 24.352 19.936 49.728 25.76 75.872 1.632 7.264 2.432 11.456 2.624 12.896 4.448 23.712 6.848 48.064 6.848 72.224-0.384 212.16-173.088 384.832-385.216 384.832zM836.256 480.416c0-0.416-0.224-0.8-0.224-1.184-0.192-1.024-0.8-4.064-1.824-8.672v-0.416c-5.024-22.56-12.48-44.512-22.336-65.632-0.192-0.192-0.192-0.608-0.416-0.8-37.632-89.12-120.128-225.216-299.648-373.536-179.52 148.32-262.016 284.416-299.68 373.536-0.192 0.224-0.192 0.64-0.416 0.8-9.664 20.896-17.088 43.072-22.304 65.632v0.416c-1.216 4.608-1.632 7.616-1.856 8.672 0 0.384-0.192 0.768-0.192 1.376-4.032 20.736-6.016 41.664-6.016 62.816 0 182.112 148.32 330.464 330.464 330.464 182.112 0 330.464-148.352 330.464-330.464 0-21.376-2.016-42.496-6.016-63.008zM511.808 783.328c-134.656 0-244.352-109.696-244.352-244.352 0-134.624 109.696-244.352 244.352-244.352 134.624 0 244.32 109.728 244.32 244.352 0 134.656-109.696 244.352-244.32 244.352zM511.808 348.96c-104.864 0-190.016 85.344-190.016 190.016s85.312 190.016 190.016 190.016c104.672 0 189.984-85.344 189.984-190.016s-85.12-190.016-189.984-190.016z" />
<glyph unicode="&#xe903;" glyph-name="twitter" d="M1024 765.477c-37.689-16.7-78.129-28.026-120.618-33.083 43.384 25.98 76.594 67.187 92.334 116.139-40.696-24.059-85.616-41.529-133.48-50.999-38.328 40.888-92.846 66.356-153.316 66.356-116.010 0-210.072-94.062-210.072-210.009 0-16.444 1.856-32.505 5.44-47.864-174.559 8.768-329.345 92.399-432.941 219.481-18.109-30.971-28.411-67.059-28.411-105.581 0-72.883 37.113-137.191 93.423-174.815-34.426 1.151-66.804 10.621-95.15 26.363v-2.624c0-101.741 72.435-186.652 168.48-205.978-17.597-4.735-36.153-7.359-55.35-7.359-13.565 0-26.683 1.344-39.544 3.904 26.746-83.505 104.301-144.228 196.188-145.893-71.859-56.31-162.466-89.776-260.879-89.776-16.956 0-33.658 1.024-50.102 2.88 92.975-59.702 203.354-94.511 321.988-94.511 386.423 0 597.648 320.069 597.648 597.648l-0.704 27.195c41.271 29.437 76.976 66.421 105.067 108.526z" />
<glyph unicode="&#xe904;" glyph-name="google" d="M662.21 960h-244.211c-108.823 0-184.152-23.858-251.952-79.867-53.322-46.004-85.144-112.862-85.144-178.854 0-101.673 77.519-209.724 221.167-209.724 13.812 0 29.104 1.417 42.598 2.676l-1.988-4.833c-5.774-13.833-11.242-26.883-11.242-47.252 0-39.658 19.131-64.12 37.628-87.756l2.327-2.993-4.135-0.286c-59.318-4.061-169.727-11.633-250.376-61.201-95.254-56.632-102.657-139.016-102.657-162.906 0-95.053 88.581-190.995 286.492-190.995 230.124 0 350.538 126.96 350.538 252.365 0.021 92.758-54.369 138.55-112.101 187.166l-48.7 37.882c-15.049 12.469-33.789 27.983-33.789 56.727 0 28.258 18.74 46.913 35.28 63.369l1.724 1.745c52.592 41.424 112.196 88.391 112.196 189.979 0 102.139-63.824 154.921-94.514 180.292h81.041c0.994 0 1.988 0.275 2.813 0.814l69.809 43.889c1.988 1.258 2.919 3.68 2.263 5.943-0.624 2.263-2.718 3.818-5.066 3.818zM366.063-8.034c-140.274 0-234.524 65.516-234.524 163.033 0 63.675 38.548 109.944 114.47 137.451 60.799 20.464 139.28 21.479 140.063 21.479 13.293 0 19.977 0 30.595-1.333 98.152-69.852 145.34-106.528 145.34-176.379-0.011-88.983-75.097-144.251-195.944-144.251zM364.741 528.982c-117.727 0-166.586 154.752-166.586 237.612 0 42.133 9.581 74.473 29.294 98.892 21.394 26.767 58.028 44.058 93.329 44.058 108.093 0 167.866-145.287 167.866-245.702 0-15.842 0-64.035-33.292-97.507-22.388-22.346-58.8-37.353-90.611-37.353zM1004.488 481.741h-128.683v128.229c0 2.919-2.38 5.288-5.288 5.288h-55.352c-2.919 0-5.288-2.369-5.288-5.288v-128.229h-128.038c-2.919 0-5.288-2.369-5.288-5.288v-56.093c0-2.908 2.369-5.288 5.288-5.288h128.038v-129.054c0-2.908 2.369-5.288 5.288-5.288h55.352c2.908 0 5.288 2.38 5.288 5.288v129.075h128.683c2.919 0 5.288 2.358 5.288 5.288v56.072c0 2.929-2.358 5.288-5.288 5.288z" />
<glyph unicode="&#xe905;" glyph-name="facebook" d="M376.354 761.682c0-25.805 0-140.984 0-140.984h-103.289v-172.396h103.289v-512.3h212.178v512.286h142.382c0 0 13.335 82.663 19.798 173.046-18.532 0-161.378 0-161.378 0s0 100.294 0 117.874c0 17.618 23.134 41.316 45.999 41.316 22.822 0 70.99 0 115.603 0 0 23.472 0 104.573 0 179.474-59.557 0-127.314 0-157.18 0-222.647 0.012-217.402-172.555-217.402-198.315z" />
<glyph unicode="&#xe906;" glyph-name="reload" d="M560.966-61.13c205.414 23.010 370.038 187.215 393.466 392.629 30.749 268.586-178.011 497.218-439.694 500.147v120.487c0 6.694-8.367 10.25-14.015 6.066l-248.086-182.195c-4.184-3.138-4.184-9.204 0-12.342l248.086-182.195c5.648-4.184 14.015-0.418 14.015 6.066v120.278c183.868-2.929 331.13-159.394 318.58-346.4-10.668-160.859-141.823-291.386-302.682-301.636-170.481-10.877-315.442 110.865-341.38 271.933-4.811 29.913-30.958 51.667-61.080 51.667-37.443 0-66.728-33.259-60.871-70.284 36.397-229.469 248.295-401.624 493.662-374.221z" />
<glyph unicode="&#xe907;" glyph-name="heart" d="M874.439 853.584c-41.459 22.84-89.012 35.976-139.746 35.976-89.512 0-169.674-40.79-222.606-104.753-53.182 63.962-133.268 104.753-222.902 104.753-50.612 0-98.077-13.136-139.629-35.976-89.152-49.373-149.555-144.299-149.555-253.389 0-31.231 5.082-61.183 14.287-89.204 49.64-223.135 497.8-504.551 497.8-504.551s447.863 281.41 497.574 504.551c9.205 28.021 14.339 58.014 14.339 89.204 0 109.050-60.404 203.946-149.561 253.389z" />
<glyph unicode="&#xe908;" glyph-name="left-arrow" d="M512-64c282.31 0 512 229.69 512 512s-229.69 512-512 512-512-229.69-512-512c0-282.31 229.69-512 512-512zM512 908.842c254.121 0 460.842-206.721 460.842-460.842s-206.721-460.842-460.842-460.842-460.842 206.721-460.842 460.842 206.721 460.842 460.842 460.842zM415.321 285.964c5.011-5.011 11.485-7.517 18.166-7.517s13.155 2.506 18.166 7.517c10.023 10.023 10.023 26.101 0 36.124l-100.228 100.228h382.956c14.199 0 25.684 11.485 25.684 25.684s-11.485 25.684-25.684 25.684h-382.956l100.228 100.228c10.023 10.023 10.023 26.101 0 36.124s-26.101 10.023-36.124 0l-143.869-143.869c-10.023-10.023-10.023-26.101 0-36.124l143.661-144.078z" />
<glyph unicode="&#xe909;" glyph-name="arrow-back" d="M724.261 930.841l58.319-58.319-424.501-424.522 424.501-424.522-58.319-58.319-482.841 482.841zM724.282-64l-512.041 512 512.021 512 87.478-87.478-424.501-424.522 424.522-424.522-87.478-87.478zM270.58 448l453.702-453.681 29.159 29.159-424.522 424.522 424.501 424.522-29.159 29.159-453.681-453.681z" />
<glyph unicode="&#xe90a;" glyph-name="cart-check" d="M632.781 151.373c-31.718 0-57.549-25.651-57.549-57.549 0-31.846 25.83-57.651 57.549-57.651 31.846 0 57.702 25.805 57.702 57.651 0 31.898-25.856 57.549-57.702 57.549zM351.206 151.373c-31.846 0-57.549-25.651-57.549-57.549 0-31.846 25.702-57.651 57.549-57.651s57.677 25.805 57.677 57.651c0 31.898-25.83 57.549-57.677 57.549zM256.845 451.123l-27.648 130.662h236.16c-1.28 11.443-2.099 23.040-2.099 34.842 0 4.122 0.461 8.141 0.614 12.237h-244.634l-19.123 81.28c-6.042 25.216-26.752 42.189-52.557 42.829h-137.19l24.755-53.376h83.635c31.718 0 35.354-6.554 42.138-34.458l77.517-375.91c8.858-42.803 46.72-73.856 90.086-73.856h341.325c39.373 0 46.515 37.504 47.744 47.744l-379.085-0.051c-20.813 0-40.525 4.25-53.606 55.45-5.274 20.813-17.69 83.942-17.843 84.557l-0.23 1.050h282.163c-13.824 14.413-26.214 30.106-37.043 46.976h-255.078zM770.432 859.827c-134.323 0-243.2-108.877-243.2-243.2s108.877-243.2 243.2-243.2 243.2 108.877 243.2 243.2-108.877 243.2-243.2 243.2zM734.234 498.97l-126.694 126.72 36.198 36.198 90.496-90.496 162.918 162.893 36.198-36.198-199.117-199.117z" />
<glyph unicode="&#xe90b;" glyph-name="right-arrow" d="M270.816 925.632v-192.096c0-0.672 0.224-1.248 0.704-1.664l284.128-284.064-284.128-283.712c-0.48-0.416-0.704-1.024-0.704-1.664v-192.032c0-0.96 0.576-1.856 1.472-2.208s1.92-0.192 2.592 0.512l477.6 477.408c0.48 0.448 0.704 1.024 0.704 1.696s-0.256 1.248-0.704 1.696l-477.6 477.792c-0.672 0.704-1.696 0.896-2.592 0.512s-1.472-1.216-1.472-2.176z" />
<glyph unicode="&#xe90c;" glyph-name="eyes-hidden" d="M885.472 821.6c-13.728 13.92-36.032 13.696-49.92 0l-125.408-125.376c-155.328 70.528-321.088 53.28-479.168-49.952-117.728-76.8-189.248-173.376-192.192-177.504-9.408-12.928-8.992-30.528 0.992-43.104 67.008-82.304 137.12-146.336 208.832-191.008l-110.304-110.272c-13.728-13.728-13.728-36.064 0-49.984 6.848-6.848 15.872-10.368 24.864-10.368 9.024 0 18.016 3.52 24.864 10.368l697.44 697.248c13.728 13.696 13.728 36.032 0 49.952v0zM424.736 410.784c-5.088 11.552-7.648 24.128-7.648 37.248 0 25.28 9.792 49.152 27.808 67.168 28.224 28.224 69.952 34.88 104.416 20.192l-124.576-124.608zM601.408 587.328c-64 41.12-150.432 33.696-206.24-22.144-31.36-31.328-48.416-72.864-48.416-116.96 0-32.128 9.216-62.848 26.24-89.344l-72.704-72.672c-63.616 36.864-126.336 91.296-187.296 162.4 26.080 30.592 81.12 89.536 156.544 138.72 130.496 85.024 260.384 103.392 386.912 55.040l-55.040-55.040zM984.256 470.368c-48.416 59.52-98.56 109.696-149.536 149.472-15.456 11.968-37.6 9.216-49.728-6.048-11.968-15.328-9.248-37.44 6.048-49.568 40.352-31.552 80.672-70.72 119.872-116.576-23.104-27.008-68.16-75.616-129.28-120.096-117.76-85.6-236.672-116.576-353.216-91.872-19.008 4.096-37.792-8.224-41.728-27.264-4.128-18.976 8.192-37.824 27.2-41.728 30.4-6.464 60.96-9.568 91.712-9.568 46.24 0 92.832 7.232 139.264 21.696 60.896 19.072 121.472 50.368 180.032 93.088 98.752 72.288 157.728 152.032 160.256 155.328 9.44 12.928 9.056 30.56-0.896 43.136v0z" />
<glyph unicode="&#xe90d;" glyph-name="eyes-open" d="M511.68 614.592c-90.144 0-163.232-73.056-163.232-163.232s73.056-163.232 163.232-163.232c90.176 0 163.264 73.056 163.264 163.232 0 90.144-73.056 163.232-163.264 163.232zM511.68 357.248c-51.872 0-94.048 42.24-94.048 94.112s42.176 94.080 94.048 94.080c51.904 0 94.080-42.208 94.080-94.080 0.032-51.872-42.176-94.112-94.080-94.112zM991.104 454.72c-0.288 1.408-0.352 2.848-0.768 4.192-0.96 2.944-2.432 5.728-4.192 8.384-0.352 0.48-0.448 1.024-0.768 1.536-0.064 0.064-0.256 0.352-0.352 0.48-0.256 0.352-0.352 0.736-0.64 1.088-0.608 0.704-1.184 1.376-1.792 2.112-7.424 9.728-30.016 38.112-65.536 73.216-25.312 24.992-57.152 53.216-94.592 80.32-9.472 6.88-19.168 13.664-29.376 20.32-6.752 4.448-13.536 8.48-20.352 12.608-85.856 51.808-173.696 78.464-260.736 79.712-87.008-1.248-174.88-27.904-260.736-79.744-6.784-4.128-13.568-8.16-20.352-12.576-10.144-6.656-19.84-13.44-29.344-20.32-37.44-27.104-69.28-55.328-94.592-80.32-35.52-35.104-58.080-63.488-65.536-73.216-0.608-0.736-1.184-1.408-1.792-2.112-0.288-0.352-0.384-0.736-0.64-1.088-0.096-0.128-0.32-0.416-0.384-0.48-0.352-0.512-0.448-1.056-0.736-1.536-1.76-2.656-3.264-5.44-4.192-8.384-0.416-1.344-0.48-2.784-0.736-4.192-0.448-2.208-0.96-4.416-0.96-6.72 0-2.112 0.512-4.224 0.864-6.304 0.288-1.536 0.384-3.104 0.864-4.608 0.896-2.752 2.336-5.344 3.936-7.872 0.416-0.64 0.544-1.344 0.96-1.984 0.064-0.064 0.32-0.384 0.416-0.544 0.256-0.352 0.352-0.704 0.608-1.024 0.736-0.928 1.568-1.856 2.368-2.816 7.904-10.208 29.6-37.28 63.008-70.464 25.056-24.864 56.672-53.248 93.952-80.576 38.56-28.128 78.016-50.816 117.824-68.736 20.672-9.376 41.44-17.824 62.272-24.32 6.976-2.176 13.952-3.872 20.896-5.76 37.408-9.888 74.848-15.264 112.032-15.744 37.248 0.512 74.656 5.888 112.064 15.744 6.976 1.888 13.984 3.552 20.896 5.76 20.832 6.496 41.6 14.944 62.272 24.32 39.808 17.952 79.264 40.64 117.824 68.736 37.312 27.328 68.896 55.68 93.984 80.576 33.376 33.184 55.072 60.256 63.008 70.464 0.736 0.96 1.568 1.888 2.336 2.816 0.256 0.32 0.352 0.672 0.576 1.024 0.128 0.16 0.352 0.48 0.448 0.544 0.416 0.64 0.576 1.344 0.96 1.984 1.6 2.528 3.040 5.088 3.936 7.872 0.48 1.504 0.608 3.072 0.832 4.608 0.384 2.112 0.864 4.192 0.864 6.304 0 2.304-0.512 4.512-0.896 6.72zM781.76 327.552c-20.192-14.752-40.48-27.2-60.704-38.688-22.368-12.64-44.736-23.68-67.168-32.448-44.16-17.184-88.32-26.688-132.256-28.448-3.2-0.064-6.4-0.384-9.632-0.32-3.2-0.064-6.4 0.256-9.6 0.32-43.968 1.76-88.096 11.264-132.256 28.448-22.368 8.736-44.768 19.808-67.168 32.448-20.256 11.488-40.544 23.936-60.704 38.688-33.44 24.256-61.824 49.696-84.672 72.32-14.848 15.136-29.6 31.2-44.256 48.256 16.32 19.072 32.864 36.672 49.504 53.376 28.064 27.2 63.936 58.016 106.624 85.888 11.136 7.232 22.208 13.824 33.248 20.064 22.528 12.704 44.992 23.52 67.424 32.288 47.552 18.528 94.848 28.224 141.856 28.928 47.040-0.704 94.336-10.4 141.824-28.928 22.464-8.736 44.928-19.552 67.424-32.288 11.104-6.24 22.144-12.832 33.248-20.064 42.72-27.84 78.592-58.688 106.656-85.888 16.672-16.672 33.184-34.304 49.504-53.376-14.624-17.056-29.376-33.152-44.256-48.256-22.848-22.624-51.232-48.064-84.64-72.32z" />
<glyph unicode="&#xe90e;" d="M796.006 744.627h-51.2v-102.4h-102.4v-51.2h102.4v-102.4h51.2v102.4h102.4v51.2h-102.4z" />
<glyph unicode="&#xe90f;" d="M770.406 859.827c-134.298 0-243.2-108.877-243.2-243.2s108.902-243.2 243.2-243.2c134.349 0 243.2 108.877 243.2 243.2s-108.851 243.2-243.2 243.2zM898.406 591.027h-102.4v-102.4h-51.2v102.4h-102.4v51.2h102.4v102.4h51.2v-102.4h102.4v-51.2z" />
<glyph unicode="&#xe910;" d="M632.755 151.373c-31.693 0-57.549-25.651-57.549-57.549 0-31.846 25.856-57.651 57.549-57.651 31.846 0 57.702 25.805 57.702 57.651 0 31.898-25.856 57.549-57.702 57.549z" />
<glyph unicode="&#xe911;" d="M351.206 151.373c-31.846 0-57.549-25.651-57.549-57.549 0-31.846 25.702-57.651 57.549-57.651s57.677 25.805 57.677 57.651c0 31.898-25.83 57.549-57.677 57.549z" />
<glyph unicode="&#xe912;" d="M256.845 451.123l-27.648 130.662h236.16c-1.28 11.443-2.099 23.040-2.099 34.842 0 4.122 0.461 8.141 0.614 12.237h-244.634l-19.123 81.28c-6.042 25.216-26.752 42.189-52.557 42.829h-137.19l24.755-53.376h83.635c31.718 0 35.354-6.554 42.138-34.458l77.517-375.91c8.858-42.803 46.72-73.856 90.086-73.856h341.299c39.398 0 46.541 37.504 47.744 47.744l-379.059-0.051c-20.813 0-40.525 4.25-53.606 55.45-5.274 20.813-17.69 83.942-17.843 84.557l-0.23 1.050h282.163c-13.85 14.413-26.24 30.106-37.043 46.976h-255.078z" />
<glyph unicode="&#xe913;" glyph-name="arrow-down" d="M989.632 689.184h-192.096c-0.672 0-1.248-0.224-1.664-0.704l-284.064-284.128-283.712 284.128c-0.416 0.48-1.024 0.704-1.664 0.704h-192.032c-0.96 0-1.856-0.576-2.208-1.472s-0.192-1.92 0.512-2.592l477.408-477.6c0.448-0.48 1.024-0.704 1.696-0.704s1.248 0.256 1.696 0.704l477.792 477.6c0.704 0.672 0.896 1.696 0.512 2.592s-1.216 1.472-2.176 1.472z" />
<glyph unicode="&#xe914;" glyph-name="landscape" d="M1007.776 851.847h-991.552c-8.959 0-16.224-7.262-16.224-16.224v-775.246c0-8.962 7.265-16.224 16.224-16.224h991.552c8.965 0 16.224 7.262 16.224 16.224v775.246c0 8.962-7.259 16.224-16.224 16.224zM926.655 173.501l-223.133 231.077c-2.466 2.547-6.499 2.713-9.16 0.37l-154.762-136.214-197.811 243.559c-1.285 1.59-3.164 2.499-5.289 2.453-2.047-0.042-3.959-1.025-5.182-2.667l-233.974-313.952v556.376h829.311v-581.001zM681.603 520.149c43.928 0 79.592 35.635 79.592 79.599 0 43.951-35.664 79.605-79.592 79.605-43.964 0-79.589-35.654-79.589-79.605 0-43.961 35.628-79.599 79.589-79.599z" />
<glyph unicode="&#xe915;" glyph-name="locked" d="M804.571 618.667h-48.762v97.524c0 136.533-107.276 243.81-243.81 243.81s-243.81-107.276-243.81-243.81v-97.524h-48.762c-53.638 0-97.524-43.886-97.524-97.524v-487.619c0-53.638 43.886-97.524 97.524-97.524h585.143c53.638 0 97.524 43.886 97.524 97.524v487.619c0 53.638-43.886 97.524-97.524 97.524zM512 867.352c82.895 0 151.162-68.267 151.162-151.162v-97.524h-297.448v97.524h-4.876c0 82.895 68.267 151.162 151.162 151.162zM804.571 33.524h-585.143v487.619h585.143v-487.619zM512 179.81c53.638 0 97.524 43.886 97.524 97.524s-43.886 97.524-97.524 97.524-97.524-43.886-97.524-97.524 43.886-97.524 97.524-97.524z" />
<glyph unicode="&#xe916;" glyph-name="phone-ring" d="M221.76 512.064c75.328-149.536 204.416-272.16 354.784-352.128l118.368 117.184c16 16.16 37.568 21.408 53.536 10.72 59.328-21.408 123.648-31.776 193.696-31.776 32.032 0 53.536-21.344 53.536-53.408v-181.568c0-31.744-21.504-53.088-53.536-53.088-505.472 0-913.792 405.248-913.792 906.592 0 32.096 21.504 53.408 53.76 53.408h188.224c32 0 53.44-21.312 53.44-53.408 0-64.096 10.848-127.872 32.352-191.936 5.504-16.128 0-37.216-10.752-53.376l-123.616-117.216zM703.488 594.528c-37.376 36.992-85.088 61.184-137.92 69.888l-18.368 3.072 2.848-18.24c0.832-5.408 1.6-10.816 2.208-16.192l1.184-9.664 9.76-1.92c42.144-7.744 80.128-27.424 109.952-57.056 34.304-33.952 55.232-77.312 60.512-125.408l1.12-10.208 15.552-2.176c2.496-0.192 5.056-0.192 8.576-0.192l18.752-0.672-1.472 15.2c-5.824 59.008-31.008 112.128-72.704 153.568v0zM773.92 664.416c-61.248 60.768-142.816 96.992-229.728 101.952l-16.896 0.992 2.848-16.512c0.864-5.344 1.92-10.88 3.040-16.576l2.048-10.016 10.176-0.608c75.008-5.12 145.376-36.768 198.208-89.28 52.032-51.648 83.84-120.704 89.536-194.4l0.992-13.12 13.184 0.768c3.168 0.128 6.24 0.448 10.752 0.8l18.88 1.472-1.056 13.312c-6.432 83.776-42.688 162.336-101.984 221.216v0zM975.456 452.64c-8.608 106.336-55.136 206.432-131.072 281.76-80.96 80.416-188.736 127.008-303.392 131.232l-13.024 0.576-0.928-12.992c-0.256-3.616-0.448-7.232-0.576-10.816l-0.768-18.88 13.472-0.416c104-3.872 201.632-46.048 274.944-118.848 68.736-68.128 110.88-158.752 118.752-255.136l1.12-13.536 13.696 1.28c4.672 0.512 9.376 0.864 14.112 1.248l14.816 1.056-1.152 13.472z" />
<glyph unicode="&#xe917;" glyph-name="arrow-right" d="M987.168 457.568l-295.872 227.904c-4.288 3.328-10.272 3.328-14.656 0.064-4.288-3.296-5.92-9.088-3.904-14.080l59.424-150.976v-26.784h-700v-96h700v-22.208l-59.424-150.88c-2.016-5.12-0.384-10.912 3.904-14.176 2.208-1.568 4.704-2.4 7.296-2.4 2.624 0 5.216 0.832 7.36 2.496l295.872 227.872c3.008 2.304 4.672 5.888 4.672 9.6 0 3.744-1.696 7.264-4.672 9.568z" />
<glyph unicode="&#xe918;" glyph-name="cancel" d="M512 960c-281.6 0-512-230.4-512-512s230.4-512 512-512 512 230.4 512 512-230.4 512-512 512zM768 263.68l-71.68-71.68-184.32 184.32-184.32-184.32-71.68 71.68 184.32 184.32-184.32 184.32 71.68 71.68 184.32-184.32 184.32 184.32 71.68-71.68-184.32-184.32 184.32-184.32z" />
<glyph unicode="&#xe919;" glyph-name="close" d="M511.68 928c-265.12-0.192-479.872-215.232-479.68-480.32 0.16-265.12 215.2-479.872 480.32-479.68 264.96 0.192 479.68 215.040 479.68 480-0.096 265.184-215.136 480.096-480.32 480zM511.040 28.064c-231.808 0.192-419.616 188.16-419.616 419.968 0.32 231.872 188.352 419.744 420.256 419.936 231.936-0.16 419.808-188.352 419.616-420.256-0.16-231.936-188.32-419.84-420.256-419.648zM587.744 448l150.176 150.208c0.64 0.64 0.64 1.6 0 2.208l-73.824 73.792c-0.544 0.608-1.664 0.608-2.176 0l-150.208-150.176-150.112 150.080c-0.64 0.608-1.6 0.608-2.208 0l-73.792-73.792c-0.64-0.64-0.64-1.6 0-2.208l150.080-150.112-150.112-150.112c-0.32-0.288-0.448-0.672-0.448-1.152 0-0.448 0.128-0.8 0.448-1.088l73.792-73.792c0.64-0.64 1.6-0.64 2.208 0l150.112 150.112 150.24-150.208c0.32-0.32 0.672-0.48 1.088-0.48 0.448 0 0.8 0.16 1.12 0.48l73.792 73.824c0.32 0.256 0.48 0.672 0.48 1.088s-0.16 0.8-0.48 1.088l-150.176 150.24z" />
<glyph unicode="&#xe91a;" glyph-name="substract" d="M988.8 528h-953.6c-1.76 0-3.2-1.44-3.2-3.2v-153.536c0-1.856 1.44-3.296 3.232-3.296h953.568c1.824 0 3.232 1.44 3.232 3.296v153.536c-0.032 1.76-1.44 3.2-3.232 3.2z" />
<glyph unicode="&#xe91b;" glyph-name="arrow-right-circle" d="M512-32c-264.672 0-480 215.328-480 480s215.328 480 480 480c264.672 0 480-215.328 480-480s-215.328-480-480-480zM512 854.144c-223.968 0-406.144-182.176-406.144-406.144 0-223.936 182.208-406.144 406.144-406.144 223.968 0 406.144 182.208 406.144 406.144 0 223.968-182.176 406.144-406.144 406.144zM650.016 449.024l-199.936 200c-0.48 0.48-1.12 0.608-1.76 0.352-0.576-0.256-0.928-0.768-0.928-1.44v-80.384c0-0.448 0.16-0.8 0.48-1.088l118.432-118.528-118.432-118.4c-0.32-0.288-0.48-0.672-0.48-1.088v-80.384c0-0.672 0.384-1.184 0.928-1.44 0.224-0.096 0.416-0.128 0.64-0.128 0.416 0 0.8 0.16 1.12 0.48l199.936 199.872c0.32 0.256 0.48 0.672 0.48 1.088s-0.192 0.832-0.48 1.088z" />
<glyph unicode="&#xe91c;" glyph-name="link" d="M548.864 278.848c32.384-32.384 31.712-85.856-1.6-119.2l-166.272-166.176c-16.288-16.352-37.952-25.472-60.992-25.472-22.016 0-42.688 8.448-58.176 23.936l-205.888 205.76c-15.392 15.488-23.904 36.256-23.904 58.304 0 23.040 9.088 44.608 25.568 60.928l166.112 166.176c16.448 16.576 36.352 25.888 61.12 25.472 22.048 0 42.72-8.544 58.112-23.904l-226.688-226.56 204.32-207.424 228.288 228.16zM668.384 546.144l-58.176 58.112c-0.736 0.736-1.92 0.736-2.656 0l-266.592-266.656c-0.384-0.352-0.576-0.8-0.576-1.344 0-0.512 0.192-0.96 0.576-1.312l58.112-58.080c0.352-0.384 0.832-0.576 1.344-0.576s0.96 0.192 1.344 0.576l266.656 266.624c0.384 0.352 0.576 0.832 0.576 1.344-0.032 0.48-0.224 0.96-0.608 1.312zM968.128 698.208l-205.888 205.888c-15.392 15.36-36.064 23.904-58.208 23.904-22.944 0-44.576-9.088-60.96-25.472l-166.272-166.208c-33.216-33.312-33.888-86.816-1.472-119.264l228.128 228.128 204.32-207.328-226.656-226.56c15.488-15.424 36.064-24 58.176-24h0.128c22.848 0 44.48 9.024 60.928 25.6l166.080 166.176c16.288 16.384 25.504 38.016 25.504 60.928 0.064 22.048-8.32 42.72-23.808 58.208v0z" />
<glyph unicode="&#xe91d;" glyph-name="cancel-sort" d="M633.703 448l365.094 365.094c33.607 33.607 33.607 88.095 0 121.698-33.607 33.607-88.091 33.607-121.698 0l-365.099-365.099-365.099 365.104c-33.607 33.607-88.091 33.607-121.698 0-33.603-33.607-33.603-88.095 0-121.698l365.099-365.094-365.099-365.099c-33.603-33.607-33.603-88.095 0-121.698 33.607-33.607 88.091-33.607 121.698 0l365.099 365.099 365.099-365.099c33.603-33.607 88.091-33.607 121.698 0s33.607 88.091 0 121.698l-365.094 365.094z" />
<glyph unicode="&#xe91e;" glyph-name="trash" d="M541.888 118.72c0.832 0 1.504 0.672 1.504 1.504v508.032c0 0.8-0.672 1.472-1.504 1.472h-59.776c-0.832 0-1.472-0.672-1.472-1.472v-508.032c0-0.832 0.672-1.504 1.472-1.504h59.776zM691.328 118.72c0.832 0 1.504 0.672 1.504 1.504v508.032c0 0.8-0.672 1.472-1.504 1.472h-59.744c-0.832 0-1.504-0.672-1.504-1.472v-508.032c0-0.832 0.672-1.504 1.504-1.504h59.744zM392.48 118.72c0.832 0 1.472 0.672 1.472 1.504v508.032c0 0.8-0.672 1.472-1.472 1.472h-59.776c-0.832 0-1.472-0.672-1.472-1.472v-508.032c0-0.832 0.672-1.504 1.472-1.504h59.776zM960.256 799.424h-267.456v36.224c0 50.912-40.864 92.352-91.136 92.352h-179.264c-50.272 0-91.168-41.44-91.168-92.352v-36.224h-267.488c-0.832 0-1.472-0.672-1.472-1.504v-59.744c0-0.832 0.672-1.504 1.472-1.504h88.16v-653.696c0.032-63.424 50.944-114.976 113.568-114.976h493.12c62.592 0 113.504 51.552 113.504 115.008v653.664h88.128c0.832 0 1.472 0.672 1.472 1.504v59.776c0.064 0.8-0.608 1.472-1.44 1.472zM393.984 835.648c0 16.32 12.736 29.6 28.416 29.6h179.296c15.648 0 28.384-13.28 28.384-29.6v-36.224h-236.064v36.224zM809.376 82.976c0-28.768-22.784-52.256-50.784-52.256h-493.12c-28 0-50.816 23.456-50.816 52.288v653.664h594.72v-653.696z" />
<glyph unicode="&#xe91f;" glyph-name="plus" d="M988.8 528h-396.768v396.8c0 1.792-1.44 3.2-3.296 3.2h-153.568c-1.76 0-3.2-1.408-3.2-3.2v-396.8h-396.736c-1.792 0-3.232-1.44-3.232-3.2v-153.536c0-1.856 1.44-3.296 3.232-3.296h396.768v-396.704c0-1.824 1.44-3.264 3.2-3.264h153.6c1.824 0 3.264 1.44 3.264 3.264v396.704h396.736c1.792 0 3.2 1.44 3.2 3.296v153.536c0 1.76-1.408 3.2-3.2 3.2z" />
<glyph unicode="&#xe920;" glyph-name="search" d="M991.284 27.298l-243.714 253.474c62.663 74.491 96.997 168.216 96.997 265.788 0 227.967-185.473 413.44-413.44 413.44s-413.44-185.473-413.44-413.44 185.473-413.44 413.44-413.44c85.582 0 167.137 25.813 236.865 74.815l245.565-255.398c10.264-10.66 24.069-16.538 38.863-16.538 14.003 0 27.287 5.339 37.371 15.046 21.427 20.618 22.11 54.808 1.492 76.253zM431.128 852.146c168.504 0 305.586-137.082 305.586-305.586s-137.082-305.586-305.586-305.586-305.586 137.082-305.586 305.586 137.082 305.586 305.586 305.586z" />
<glyph unicode="&#xe921;" glyph-name="label" d="M732.042 668.024c8.572-8.572 22.478-8.572 31.038 0l254.488 254.498c8.572 8.572 8.572 22.466 0 31.050-8.56 8.572-22.466 8.572-31.038 0l-254.488-254.498c-8.582-8.572-8.582-22.478 0-31.050zM951.969 475.536l-27.911 306.894-76.619-76.619c4.456-28.448-4.225-58.565-26.144-80.482-36.427-36.427-95.498-36.439-131.925 0-36.427 36.427-36.427 95.508 0 131.935 21.917 21.917 52.013 30.588 80.451 26.144l76.641 76.641-306.906 27.912c-12.072 1.086-24.014-3.228-32.597-11.809l-494.992-494.992c-15.947-15.959-15.959-41.817 0-57.764l110.105-110.116 54.329 54.329 155.214-155.214-54.317-54.317 110.105-110.105c15.959-15.959 41.805-15.959 57.752 0l495.025 494.992c8.552 8.58 12.864 20.522 11.789 32.572z" />
<glyph unicode="&#xe922;" glyph-name="envelope" d="M933.44 827.872h-842.88c-32.288 0-58.56-27.68-58.56-61.696v-636.384c0-34.016 26.272-61.696 58.56-61.696h842.88c32.288 0 58.56 27.68 58.56 61.696v636.384c0 34.016-26.272 61.696-58.56 61.696zM935.168 592.352v-422.016l-236.512 250.016 236.512 172zM324.48 419.392l-235.648-249.056v418.624l235.648-169.568zM88.832 660.928v107.296h846.304v-101.792l-423.328-309.376-422.976 303.872zM372.032 385.216l140.128-100.448 139.232 101.088 243.872-258.080h-766.528l243.296 257.44z" />
<glyph unicode="&#xe923;" glyph-name="catalog" d="M448 771.2c0-1.76-1.44-3.2-3.2-3.2h-121.6c-1.76 0-3.2 1.44-3.2 3.2v121.6c0 1.76 1.44 3.2 3.2 3.2h121.6c1.76 0 3.2-1.44 3.2-3.2v-121.6zM704 771.2c0-1.76-1.44-3.2-3.2-3.2h-121.6c-1.76 0-3.2 1.44-3.2 3.2v121.6c0 1.76 1.44 3.2 3.2 3.2h121.6c1.76 0 3.2-1.44 3.2-3.2v-121.6zM448 515.2c0-1.76-1.44-3.2-3.2-3.2h-121.6c-1.76 0-3.2 1.44-3.2 3.2v121.6c0 1.76 1.44 3.2 3.2 3.2h121.6c1.76 0 3.2-1.44 3.2-3.2v-121.6zM704 515.2c0-1.76-1.44-3.2-3.2-3.2h-121.6c-1.76 0-3.2 1.44-3.2 3.2v121.6c0 1.76 1.44 3.2 3.2 3.2h121.6c1.76 0 3.2-1.44 3.2-3.2v-121.6zM448 259.2c0-1.76-1.44-3.2-3.2-3.2h-121.6c-1.76 0-3.2 1.44-3.2 3.2v121.6c0 1.76 1.44 3.2 3.2 3.2h121.6c1.76 0 3.2-1.44 3.2-3.2v-121.6zM704 259.2c0-1.76-1.44-3.2-3.2-3.2h-121.6c-1.76 0-3.2 1.44-3.2 3.2v121.6c0 1.76 1.44 3.2 3.2 3.2h121.6c1.76 0 3.2-1.44 3.2-3.2v-121.6zM448 3.2c0-1.76-1.44-3.2-3.2-3.2h-121.6c-1.76 0-3.2 1.44-3.2 3.2v121.6c0 1.76 1.44 3.2 3.2 3.2h121.6c1.76 0 3.2-1.44 3.2-3.2v-121.6zM704 3.2c0-1.76-1.44-3.2-3.2-3.2h-121.6c-1.76 0-3.2 1.44-3.2 3.2v121.6c0 1.76 1.44 3.2 3.2 3.2h121.6c1.76 0 3.2-1.44 3.2-3.2v-121.6z" />
<glyph unicode="&#xe924;" glyph-name="link-url" d="M640.977 262.351l54.718 54.718c15.634 15.634 15.634 39.084 0 54.718l-257.954 257.954c-15.634 15.634-39.084 15.634-54.718 0l-54.718-54.718c-15.634-15.634-15.634-39.084 0-54.718l257.954-257.954c15.634-15.634 39.084-15.634 54.718 0zM211.053 504.672c-31.267 31.267-50.809 74.26-50.809 121.16 0 93.802 78.168 171.969 171.969 171.969 46.901 0 89.893-19.542 121.16-50.809l97.71-97.71c15.634-15.634 39.084-15.634 54.718 0l54.718 54.718c15.634 15.634 15.634 39.084 0 54.718l-97.71 97.71c-62.534 62.534-144.611 97.71-234.504 97.71-179.786 0-328.305-148.519-328.305-328.305 0-85.985 35.176-171.969 97.71-234.504l97.71-97.71c15.634-15.634 39.084-15.634 54.718 0l54.718 54.718c15.634 15.634 15.634 39.084 0 54.718l-93.802 101.618zM922.382 500.763l-97.71 97.71c-15.634 15.634-39.084 15.634-54.718 0l-54.718-54.718c-15.634-15.634-15.634-39.084 0-54.718l97.71-97.71c31.267-31.267 50.809-74.26 50.809-121.16 0-93.802-78.168-171.969-171.969-171.969-46.901 0-89.893 19.542-121.16 50.809l-97.71 97.71c-15.634 15.634-39.084 15.634-54.718 0l-54.718-54.718c-15.634-15.634-15.634-39.084 0-54.718l97.71-97.71c62.534-62.534 144.611-97.71 234.504-97.71 179.786 0 328.305 148.519 328.305 328.305-3.908 85.985-39.084 168.061-101.618 230.595z" />
<glyph unicode="&#xe925;" glyph-name="search-thin" d="M717.216 301.184c-8.608-10.624-17.728-20.928-27.552-30.816-9.888-9.888-20.192-19.008-30.816-27.552l274.016-274.016c1.056-1.024 2.816-1.024 3.872 0l54.496 54.496c1.024 1.056 1.024 2.816 0 3.872l-274.016 274.016zM717.184 301.184c122.112 151.296 112.992 373.44-27.552 514.016-75.232 75.2-173.824 112.8-272.416 112.8s-197.184-37.6-272.416-112.768c-150.432-150.464-150.432-394.368 0-544.832 75.232-75.232 173.824-112.832 272.416-112.832 85.696 0 171.296 28.512 241.568 85.28l0.032-0.032c10.624 8.576 20.928 17.76 30.816 27.552 9.792 9.888 19.008 20.192 27.552 30.816zM203.2 328.736c-41.664 41.696-69.536 93.44-81.664 149.728-0.352 1.632-0.864 3.168-1.216 4.8-0.832 4.288-1.248 8.672-1.92 13.024-0.832 5.472-1.888 10.88-2.432 16.448-0.224 2.176-0.16 4.416-0.32 6.592-0.608 7.776-1.152 15.552-1.152 23.456 0 7.52 0.544 14.944 1.088 22.368 0.192 2.56 0.128 5.152 0.384 7.68 0.512 5.28 1.504 10.4 2.304 15.616 0.704 4.608 1.152 9.312 2.048 13.856 0.32 1.6 0.832 3.168 1.216 4.768 12.128 56.288 40 108.096 81.664 149.792 57.184 57.152 133.184 88.64 214.016 88.64 80.864 0 156.832-31.488 214.016-88.64 57.12-57.184 88.672-133.216 88.672-214.048s-31.456-156.832-88.672-214.016c-57.184-57.12-133.184-88.672-214.016-88.672-80.832-0.032-156.832 31.488-214.016 88.608z" />
<glyph unicode="&#xe926;" glyph-name="user" d="M512.064 864c79.552 0 133.376-26.816 160.032-79.84 22.592-44.672 22.592-99.2 22.592-147.264 0-61.952-31.456-136.16-86.368-203.616-21.152-26.016-18.656-64 5.824-87.008 18.56-17.472 56.416-37.856 128.992-74.176l1.888-0.96c66.976-33.472 112.448-57.024 133.888-78.432 37.504-37.568 48.544-108.512 49.12-144.16 0.064-4.48-1.6-8.672-4.64-11.744-2.976-3.072-7.104-4.8-11.36-4.8h-800.032c-4.224 0-8.352 1.76-11.392 4.8-3.040 3.104-4.672 7.136-4.608 11.424 0.576 35.968 11.584 106.848 49.088 144.384 21.504 21.536 66.976 45.056 133.824 78.464 81.12 40.416 114.176 59.36 130.976 75.232 24.448 23.008 26.944 60.992 5.76 87.008-54.816 67.296-86.272 141.504-86.272 203.584 0 48.096 0 102.624 22.528 147.296 26.752 52.928 80.64 79.808 160.16 79.808zM512.064 928c-131.648 0-190.784-62.496-217.312-114.976-29.376-58.304-29.376-123.616-29.376-176.128 0-77.344 36.896-165.728 100.64-244-15.264-14.368-77.952-45.76-115.648-64.544-74.752-37.376-122.144-62.080-150.528-90.464-62.752-62.816-67.488-168.192-67.84-188.64-0.352-21.408 7.936-42.048 23.040-57.376 15.040-15.232 35.552-23.872 56.96-23.872h800.032c21.376 0 41.984 8.64 56.96 23.872 15.040 15.328 23.264 35.968 23.008 57.376-0.352 20.448-5.12 125.824-67.84 188.64-28.384 28.384-75.776 53.088-150.528 90.464-37.632 18.848-100.384 50.144-115.648 64.544 63.68 78.272 100.704 166.656 100.704 244 0 52.544 0 117.856-29.472 176.128-26.368 52.448-85.632 114.976-217.152 114.976v0z" />
<glyph unicode="&#xe927;" glyph-name="close-thin" d="M978.176 48.384c18.4-18.368 18.4-48.192 0-66.592v0c-18.368-18.368-48.192-18.368-66.592 0l-865.792 865.792c-18.4 18.4-18.4 48.192 0 66.624v0c18.4 18.368 48.192 18.368 66.592 0l865.792-865.824zM911.584 914.208c18.4 18.4 48.224 18.4 66.592 0v0c18.4-18.368 18.4-48.192 0-66.624l-865.792-865.792c-18.4-18.368-48.192-18.336-66.592 0v0c-18.4 18.4-18.4 48.224 0 66.592l865.792 865.824z" />
<glyph unicode="&#xe928;" glyph-name="checked" d="M11.815 408.615c-7.877 7.877-11.815 19.692-11.815 27.569s3.938 19.692 11.815 27.569l55.138 55.138c15.754 15.754 39.385 15.754 55.138 0l3.938-3.938 216.615-232.369c7.877-7.877 19.692-7.877 27.569 0l527.754 547.446h3.938c15.754 15.754 39.385 15.754 55.138 0l55.138-55.138c15.754-15.754 15.754-39.385 0-55.138v0l-630.154-653.785c-7.877-7.877-15.754-11.815-27.569-11.815s-19.692 3.938-27.569 11.815l-307.2 330.831-7.877 11.815z" />
<glyph unicode="&#xe929;" glyph-name="triangle" d="M1021.44 960h-1018.88c-1.434 0-2.56-1.126-2.56-2.56v-1018.88c0-1.075 0.614-1.946 1.587-2.355 0.307-0.154 0.614-0.205 0.973-0.205 0.666 0 1.28 0.256 1.792 0.768l1018.88 1018.931c0.768 0.717 0.973 1.792 0.563 2.714s-1.28 1.587-2.355 1.587z" />
<glyph unicode="&#xe92a;" glyph-name="instagram" d="M921.6 960h-819.2c-56.32 0-102.4-46.080-102.4-102.4v-819.2c0-56.32 46.080-102.4 102.4-102.4h819.2c56.32 0 102.4 46.080 102.4 102.4v819.2c0 56.32-46.080 102.4-102.4 102.4zM512 652.8c112.64 0 204.8-92.16 204.8-204.8s-92.16-204.8-204.8-204.8c-112.64 0-204.8 92.16-204.8 204.8s92.16 204.8 204.8 204.8zM128 38.4c-15.36 0-25.6 10.24-25.6 25.6v435.2h107.52c-5.12-15.36-5.12-35.84-5.12-51.2 0-168.96 138.24-307.2 307.2-307.2s307.2 138.24 307.2 307.2c0 15.36 0 35.84-5.12 51.2h107.52v-435.2c0-15.36-10.24-25.6-25.6-25.6h-768zM921.6 729.6c0-15.36-10.24-25.6-25.6-25.6h-102.4c-15.36 0-25.6 10.24-25.6 25.6v102.4c0 15.36 10.24 25.6 25.6 25.6h102.4c15.36 0 25.6-10.24 25.6-25.6v-102.4z" />
</font>
</defs>
</svg>
